<svg version="1.2" xmlns="http://www.w3.org/2000/svg" viewBox="0 0 1500 450" width="1500" height="450">
	<title>OC_Logo_small</title>
	<style>
		.s0 { fill: #000000 } 
	</style>
	<path id="ORGANIC CONCEPTS" class="s0" aria-label="ORGANIC
CONCEPTS"  d="m96.1 208.3q-29.6 0-51.1-10.6-21.5-10.7-32.9-32.1-11.4-21.5-11.4-53.9 0-32.9 11.4-54.1 11.4-21.5 32.9-31.8 21.5-10.6 51.1-10.6 30.2 0 51.5 10.6 21.4 10.3 32.9 31.8 11.4 21.2 11.4 54.1 0 32.4-11.4 53.9-11.5 21.4-32.9 32.1-21.3 10.6-51.5 10.6zm0-33.2q13.4 0 23.4-3.8 10.1-3.8 16.9-11.4 6.8-7.7 10.3-18.5 3.6-11.2 3.6-25.3v-8.5q0-14.4-3.6-25.5-3.5-11.2-10.3-18.5-6.8-7.6-16.9-11.5-10-3.8-23.4-3.8-13 0-23.1 3.8-10 3.9-16.8 11.5-6.8 7.3-10.4 18.5-3.2 11.1-3.2 25.5v8.5q0 14.1 3.2 25.3 3.6 10.8 10.4 18.5 6.8 7.6 16.8 11.4 10.1 3.8 23.1 3.8zm203.8 29.9h-40.6v-186.6h102.3q20.7 0 34.3 7.4 13.8 7.3 20.6 20.6 6.8 13.1 6.8 30.2 0 18.2-8.1 32.4-8.2 13.9-23.7 21.2l38.1 74.8h-44.9l-32.9-68h-51.9zm0-153.7v53.6h56.3q12.2 0 19-7.3 6.8-7.6 6.8-20.4 0-8.2-3-13.9-3-6-8.7-9-5.7-3-14.1-3zm276.3 157q-44.1 0-68-23.4-23.7-23.7-23.7-73.2 0-32.9 11.5-54.1 11.4-21.5 33.1-31.8 21.8-10.6 52.3-10.6 18.2 0 34.2 4 16.1 4.1 28.3 12.5 12.5 8.5 19.3 21.3 7.1 12.5 7.1 29.9h-41.1q0-8.4-3.8-15-3.5-6.5-10-10.9-6.6-4.3-15-6.5-8.4-2.2-17.7-2.2-14.1 0-24.7 3.8-10.6 3.6-17.7 11.2-6.8 7.3-10.3 18.5-3.6 11.1-3.6 25.8v8.2q0 20.4 6 33.4 6 13.1 18 19.6 11.9 6.3 29.6 6.3 14.7 0 25.8-4.4 11.5-4.6 17.7-13 6.6-8.5 6.6-20.7v-1.9h-55.8v-31h96v100.9h-26.6l-3.6-20.1q-8.1 7.9-17.7 13-9.2 5.2-20.6 7.9-11.5 2.5-25.6 2.5zm190.7-3.3h-41.9l71.8-186.6h50l71.8 186.6h-43.8l-13.3-36.7h-81.3zm41.6-115.3l-16.6 45.9h57.9l-16.5-45.9q-1.1-3-2.8-7.1-1.3-4.4-3-9.5-1.6-5.2-3.2-10.1-1.4-5.2-2.7-9.2h-1.7q-1.3 5.1-3.5 12.2-2.2 6.8-4.4 13.3-2.1 6.3-3.5 10.4zm205.4 115.3h-38.4v-186.6h37.3l75 100.6q1.7 1.9 4.1 5.5 2.5 3.2 4.6 6.5 2.2 3.3 3 5.2h1.4q0-4.7 0-9 0-4.6 0-8.2v-100.6h38.3v186.6h-37.2l-76.7-103.1q-2.7-3.8-5.7-8.4-3-4.7-4.4-7.1h-1.3q0 4.1 0 8.2 0 3.8 0 7.3zm241.7 0h-40.5v-186.6h40.5zm159.4 3.3q-29.1 0-49.7-10.1-20.7-10.3-31.6-31.8-10.6-21.5-10.6-54.7 0-48.9 23.9-72.6 24.2-23.9 68-23.9 24 0 43 8.1 19 8.2 29.9 24.5 11.2 16.3 11.2 41.1h-40.8q0-13.1-5.5-22-5.1-9-14.9-13.6-9.5-4.9-22.3-4.9-17.4 0-28.9 6.8-11.1 6.8-16.5 20.1-5.2 13-5.2 32.1v8.4q0 19.6 5.4 32.9 5.5 13.1 16.3 19.9 11.2 6.5 28.6 6.5 13.6 0 23.7-4.6 10-4.6 15.5-13.6 5.4-9 5.4-22.1h39.2q0 24.8-10.9 41.1-10.6 16.3-29.6 24.5-19.1 7.9-43.6 7.9zm-1321.5 226q-28.6 0-48.5-10.4-19.8-10.6-30.4-31.8-10.4-21.5-10.4-54.4 0-48.7 23.7-72.6 23.7-23.9 65.8-23.9 24 0 42.5 7.9 18.5 7.6 28.8 23.4 10.6 15.5 10.6 39.1h-26.1q0-16.3-7.1-26.9-6.8-10.6-19.3-15.8-12.5-5.4-29.4-5.4-19.6 0-33.7 7.6-14.1 7.6-21.5 23.7-7.3 15.7-7.3 40.8v5.7q0 24.7 7.3 40.5 7.4 15.5 21.2 22.8 14.2 7.4 34 7.4 17.4 0 29.9-5.2 12.8-5.2 19.6-15.8 7.1-10.8 7.1-27.2h25.3q0 24.2-10.9 39.8-10.6 15.5-29.1 23.1-18.5 7.6-42.1 7.6zm202 0q-29.1 0-50-10.6-20.7-10.6-32.1-32.1-11.2-21.5-11.2-53.9 0-32.6 11.2-53.8 11.4-21.5 32.1-32.1 20.9-10.6 50-10.6 29.1 0 49.8 10.6 21 10.6 32.1 32.1 11.4 21.2 11.4 53.8 0 32.4-11.4 53.9-11.1 21.5-32.1 32.1-20.7 10.6-49.8 10.6zm0-22.3q15.3 0 27.5-4.1 12.5-4.1 21-12.8 8.7-9 13.3-22.3 4.6-13.6 4.6-32.1v-5.7q0-18.8-4.6-32.1-4.6-13.6-13.3-22.3-8.5-9-21-13-12.2-4.1-27.5-4.1-15.5 0-27.7 4.1-12.2 4-20.9 13-8.7 8.7-13.4 22.3-4.3 13.3-4.3 32.1v5.7q0 18.5 4.3 32.1 4.7 13.3 13.4 22.3 8.7 8.7 20.9 12.8 12.2 4.1 27.7 4.1zm155.6 19h-25v-186.6h25l90.6 123q1.3 1.6 3.5 4.9 2.2 3.2 4.4 6.5 2.2 3 3.5 5.4h1.1q0-4.3 0-8.4 0-4.3 0-8.4v-123h25.3v186.6h-23.7l-91.6-125.1q-1.9-3-5.7-8.4-3.6-5.5-6-8.7h-1.4q0 4.3 0 8.7 0 4.1 0 8.4zm254.9 3.3q-28.6 0-48.4-10.4-19.9-10.6-30.5-31.8-10.3-21.5-10.3-54.4 0-48.7 23.6-72.6 23.7-23.9 65.8-23.9 24 0 42.5 7.8 18.5 7.7 28.8 23.4 10.6 15.5 10.6 39.2h-26.1q0-16.3-7.1-26.9-6.8-10.6-19.3-15.8-12.5-5.4-29.4-5.4-19.5 0-33.7 7.6-14.1 7.6-21.5 23.6-7.3 15.8-7.3 40.8v5.8q0 24.7 7.3 40.5 7.4 15.5 21.2 22.8 14.2 7.4 34 7.4 17.4 0 30-5.2 12.7-5.2 19.5-15.8 7.1-10.9 7.1-27.2h25.3q0 24.2-10.9 39.7-10.6 15.5-29.1 23.2-18.5 7.6-42.1 7.6zm263.5-3.3h-145.2v-186.6h143.6v22.3h-117.8v57.7h105.8v22.3h-105.8v62h119.4zm64.8 0h-25.9v-186.6h92.2q19.3 0 32.1 7.4 12.8 7 19.1 19.8 6.5 12.8 6.5 29.7 0 17.1-7.1 30.4-7.1 13.1-20.1 20.4-12.8 7.4-30.8 7.4h-66zm0-164.3v70.4h64.4q15.2 0 24.2-9.5 9.3-9.5 9.3-26.1 0-11.1-3.8-18.8-3.8-7.6-11.2-11.7-7.3-4.3-18.5-4.3zm221.1 164.3h-25.8v-164h-63.9v-22.6h154.2v22.6h-64.5zm161.9 3.2q-15.3 0-29.4-3-13.9-3-24.8-9.5-10.8-6.8-17.4-17.4-6.2-10.6-6.2-26.1 0-1.4 0-2.7 0.3-1.4 0.3-2.7h26.1q0 0.8-0.3 2.7 0 1.6 0 3 0 10.9 6.5 18.5 6.5 7.6 18 11.4 11.7 3.5 26.4 3.5 6.5 0 13.6-0.8 7.3-0.8 13.8-2.7 6.8-2.2 12-5.4 5.4-3.6 8.4-8.5 3.3-5.1 3.3-12.5 0-9.2-5.5-15.2-5.1-6.3-13.8-10.1-8.7-4.1-19.9-7.1-10.9-3.2-22.6-6.2-11.6-3-22.8-6.8-10.9-4.1-19.6-9.8-8.7-6-14.1-14.7-5.2-8.7-5.2-21.2 0-11.7 4.6-20.9 4.9-9.3 14.2-15.6 9.5-6.5 23.4-9.7 13.8-3.6 31.8-3.6 14.7 0 27.2 3.3 12.8 3 22.3 9.5 9.8 6.3 15.2 16.1 5.5 9.7 5.5 23.6v3.3h-25.6v-4.1q0-9.3-5.7-15.8-5.7-6.5-15.8-10-9.8-3.6-22.3-3.6-16.3 0-27.2 3.3-10.9 3-16.3 9-5.2 5.7-5.2 13 0 8.4 5.2 14.2 5.4 5.7 14.1 9.5 8.7 3.5 19.9 6.5 11.1 3 22.6 6.3 11.7 3 22.5 7 11.2 3.8 19.9 9.8 9 5.7 14.1 14.7 5.2 8.7 5.2 21.5 0 19.9-9.8 32.4-9.8 12.2-26.9 17.9-17.2 5.7-39.7 5.7z"/>
</svg>